# xmcd CD database file
#
# Track frame offsets:
#	150
#	27450
#	45075
#	66525
#	85875
#	97500
#	111525
#	135525
#	161100
#	172125
#	187650
#	198450
#	211800
#	228375
#
# Disc length: 3359 seconds
#
# Revision: 2
# Processed by: cddbd v1.4PL0 Copyright (c) Steve Scherf et al.
# Submitted via: CDex 1.50Beta3
#
DISCID=ba0d1d0e
DTITLE=Shanghai Yunlv Music Association - Morning in the Miaoling
DYEAR=1900
DGENRE=Classical
TTITLE0=Morning in the Miaoling
TTITLE1=Canticle
TTITLE2=The place in the distance
TTITLE3=Embroider flowers on a pouch
TTITLE4=Four seasons
TTITLE5=Girl of Daban town
TTITLE6=Lanhuahua girl
TTITLE7=The river flows - Yunnan folk song
TTITLE8=Pick the betel palms
TTITLE9=Girls from Ali mountains
TTITLE10=Beaming with joy when the sun rises
TTITLE11=Deep affection
TTITLE12=Climbing high step by step
TTITLE13=Alamhan girl
EXTD=
EXTT0=
EXTT1=
EXTT2=
EXTT3=
EXTT4=
EXTT5=
EXTT6=
EXTT7=
EXTT8=
EXTT9=
EXTT10=
EXTT11=
EXTT12=
EXTT13=
PLAYORDER=
